<?xml version="1.0" standalone="no"?><svg id="svgContent" version="1.1" width="499" height="500" style="position: relative; width: 499px; height: 500px; margin:auto; user-select: none; cursor: default;" xmlns="http://www.w3.org/2000/svg" xmlns:xlink="http://www.w3.org/1999/xlink" viewBox="0 0 499 500"><g id="svgPath"><path d="M 252.480 41.250 C 252.229 41.938, 251.589 45.425, 251.059 49 C 246.170 81.951, 233.115 126.547, 222.314 147.194 C 212.372 166.196, 195.559 172.416, 164.500 168.580 C 139.806 165.531, 127.372 162.756, 98 153.736 C 72.859 146.017, 68.766 144.901, 68.083 145.583 C 67.423 146.244, 71.692 150.274, 94.477 170.500 C 114.641 188.398, 135.810 209.302, 145.624 221.005 C 161.307 239.706, 164.864 250.423, 159.619 263.172 C 152.283 281.009, 128.304 305.384, 81.941 342.131 C 73.975 348.445, 71.734 350.863, 72.353 352.477 C 72.867 353.817, 73.412 353.837, 76.720 352.638 C 80.778 351.168, 90.108 348.254, 99 345.679 C 102.025 344.803, 106.750 343.395, 109.500 342.550 C 133.398 335.205, 159.558 330.863, 180 330.848 C 209.841 330.825, 219.682 339.706, 232.250 378 C 236.618 391.308, 237.324 393.633, 240.606 405.500 C 241.519 408.800, 242.842 413.525, 243.546 416 C 244.250 418.475, 246.713 428.488, 249.020 438.250 C 251.655 449.404, 253.673 456, 254.449 456 C 255.844 456, 256.770 453.160, 260.483 437.500 C 261.918 431.450, 263.790 423.575, 264.644 420 C 265.497 416.425, 267.976 407.200, 270.151 399.500 C 282.352 356.320, 288.033 344.685, 300.877 336.578 C 315.867 327.115, 342.046 328.045, 388.500 339.690 C 402.800 343.275, 416.075 346.563, 418 346.998 C 419.925 347.433, 423.750 348.506, 426.500 349.383 C 429.250 350.261, 432.516 350.983, 433.758 350.989 C 438.033 351.010, 434.745 347.820, 411.500 329.399 C 372.739 298.682, 347.125 267.827, 347.024 251.730 C 346.981 245.002, 352.610 233.573, 360.645 224.068 C 371.999 210.638, 378.505 203.762, 391.585 191.370 C 399.788 183.598, 408.300 175.725, 410.500 173.875 C 418.532 167.119, 437 148.618, 437 147.327 C 437 145.283, 434.186 145.706, 422.900 149.448 C 404.629 155.507, 383.596 161.144, 365 164.968 C 355.531 166.915, 335.882 168.960, 326.500 168.975 C 297.508 169.020, 284.519 154.167, 270.998 105.500 C 269.775 101.100, 268.177 95.475, 267.445 93 C 266.713 90.525, 265.399 85.350, 264.524 81.500 C 263.649 77.650, 262.285 71.800, 261.492 68.500 C 260.699 65.200, 259.372 59.125, 258.541 55 C 257.711 50.875, 256.554 45.813, 255.969 43.750 C 254.908 40.006, 253.345 38.886, 252.480 41.250" stroke="none" fill="#ffffff22" fill-rule="evenodd"></path></g></svg>