<?xml version="1.0" standalone="no"?><svg id="svgContent" version="1.1" width="500" height="499" style="position: relative; width: 500px; height: 499px; margin:auto; user-select: none; cursor: default;" xmlns="http://www.w3.org/2000/svg" xmlns:xlink="http://www.w3.org/1999/xlink" viewBox="0 0 500 499"><g id="svgPath"><path d="M 175 93.587 C 143.232 105.066, 119.500 119.825, 95.388 143.099 C 70.807 166.826, 55.304 195.333, 48.402 229.500 C 47.455 234.187, 46.573 245.007, 46.273 255.628 C 45.566 280.655, 47.992 295.737, 56.224 317.500 C 59.408 325.918, 67.192 341.398, 69.589 344.079 C 70.365 344.947, 71 345.993, 71 346.403 C 71 348.169, 83.221 363.233, 91.500 371.672 C 101.936 382.310, 109.738 388.701, 123.017 397.489 C 153.292 417.523, 182.539 429.013, 219 435.195 C 229.166 436.918, 262.113 436.868, 273.500 435.112 C 321.837 427.656, 368.971 405.298, 400.904 374.679 C 421.204 355.214, 438.011 325.893, 444.859 298 C 451.508 270.915, 449.812 234.971, 440.635 208.500 C 432.652 185.471, 422.123 167.547, 405.684 149 C 382.906 123.301, 355.266 105.715, 318.611 93.599 C 308.745 90.338, 302 89.100, 302 90.549 C 302 90.850, 303.861 93.888, 306.135 97.299 C 310.885 104.423, 319.466 120.617, 321.609 126.500 C 325.834 138.103, 327.975 146.306, 328.655 153.500 C 329.571 163.195, 329.574 161.883, 328.618 171 C 326.182 194.218, 306.395 220.365, 282.860 231.466 C 274.318 235.494, 266.994 237.527, 255.519 239.054 C 243.578 240.643, 228.228 237.970, 213.574 231.751 C 195.729 224.176, 179.108 207.596, 171.011 189.291 C 158.643 161.332, 166.083 125.052, 190.172 95.861 C 192.277 93.310, 194 90.947, 194 90.611 C 194 88.879, 183.464 90.529, 175 93.587" stroke="none" fill="#ffffff22" fill-rule="evenodd"></path></g></svg>