<?xml version="1.0" standalone="no"?><svg id="svgContent" version="1.1" width="500" height="498" style="position: relative; width: 500px; height: 498px; margin:auto; user-select: none; cursor: default;" xmlns="http://www.w3.org/2000/svg" xmlns:xlink="http://www.w3.org/1999/xlink" viewBox="0 0 500 498"><g id="svgPath"><path d="M 178 48.928 C 169.853 49.677, 165.618 50.595, 149 55.218 C 141.220 57.382, 118.846 66.985, 116.079 69.348 C 115.211 70.089, 113.825 71.007, 113 71.387 C 103.628 75.706, 82.853 94.068, 74.072 105.793 C 48.107 140.464, 40.505 181.133, 51.134 228.500 C 53.357 238.403, 58.588 255.101, 63.353 267.500 C 66.886 276.694, 78.532 300.518, 82.686 307.050 C 100.172 334.542, 114.585 352.333, 134.107 370.526 C 163.982 398.367, 207.859 426.304, 236.884 435.965 C 245.095 438.698, 256.261 441.606, 266.500 443.678 C 279.667 446.343, 318.848 446.308, 331 443.620 C 349.877 439.444, 366.552 432.946, 379.448 424.740 C 395.533 414.503, 406.722 405.229, 420.900 390.382 C 432.811 377.909, 435 374.617, 435 369.174 C 435 365.304, 431.517 361.479, 412.067 343.984 C 406.879 339.318, 401.929 334.799, 401.067 333.942 C 400.205 333.084, 393.504 327.009, 386.175 320.442 C 378.846 313.874, 368.880 304.900, 364.029 300.500 C 359.178 296.100, 350.999 288.720, 345.854 284.099 C 340.709 279.479, 333.575 272.925, 330 269.534 C 326.425 266.143, 319.226 259.574, 314.002 254.935 C 308.778 250.296, 303.603 245.560, 302.502 244.411 C 301.401 243.263, 298.025 240.166, 295 237.531 C 291.975 234.895, 286.575 229.968, 283 226.582 C 279.425 223.196, 272.225 216.669, 267 212.077 C 261.775 207.486, 257.050 203.224, 256.500 202.606 C 255.950 201.988, 246.050 192.943, 234.500 182.506 C 222.950 172.068, 212.150 162.287, 210.500 160.769 C 207.385 157.904, 204.440 157.181, 203.792 159.124 C 203.586 159.742, 204.193 163.230, 205.141 166.874 C 206.089 170.518, 208.951 181.600, 211.502 191.500 C 219.361 222.008, 221.229 229.101, 227.103 250.750 C 228.259 255.012, 229.572 260.075, 230.021 262 C 230.469 263.925, 232.022 270, 233.472 275.500 C 239.372 297.888, 242 308.266, 242 309.185 C 242 310.801, 215.562 296.542, 206.714 290.155 C 184.187 273.892, 166.342 251.487, 156.767 227.444 C 138.495 181.561, 141.655 144.471, 166 119.065 C 179.643 104.828, 194.080 96.889, 218.148 90.387 C 228.020 87.720, 229.520 87.591, 250.500 87.606 C 271.102 87.621, 273.104 87.788, 282 90.235 C 298.514 94.777, 303.473 96.728, 322.755 106.269 C 330.596 110.149, 337.318 113.015, 337.694 112.639 C 338.902 111.431, 334.109 103.031, 329.241 97.827 C 324.969 93.259, 312.913 84.619, 301 77.588 C 294.958 74.021, 274.366 64, 273.079 64 C 272.515 64, 270.129 63.157, 267.777 62.126 C 259.870 58.660, 246.083 54.576, 230.415 51.058 C 220.071 48.736, 192.352 47.609, 178 48.928 M 279 282.458 C 279 282.775, 279.871 287.190, 280.935 292.267 C 281.998 297.345, 283.177 303.525, 283.554 306 C 285.106 316.188, 287.674 319.568, 295 321.065 C 298.766 321.835, 326.110 328.787, 328.845 329.670 C 330.359 330.159, 318.148 317.893, 300.462 301.159 C 281.713 283.419, 279 281.055, 279 282.458" stroke="none" fill="#ffffff22" fill-rule="evenodd"></path></g></svg>