<?xml version="1.0" standalone="no"?><svg id="svgContent" version="1.1" width="499" height="500" style="position: relative; width: 499px; height: 500px; margin:auto; user-select: none; cursor: default;" xmlns="http://www.w3.org/2000/svg" xmlns:xlink="http://www.w3.org/1999/xlink" viewBox="0 0 499 500"><g id="svgPath"><path d="M 240.420 69.750 C 222.282 119.105, 196.533 141.893, 158.809 141.976 C 152.929 141.989, 147.865 142.410, 147.555 142.912 C 147.245 143.413, 149.806 145.447, 153.246 147.433 C 162.359 152.693, 162.676 152.906, 171.822 159.908 C 202.218 183.178, 224.934 216.300, 238.070 256.500 C 240.226 263.100, 241.993 269.325, 241.995 270.333 C 242.001 272.714, 244.406 271.929, 244.803 269.417 C 245.348 265.965, 254.162 239.524, 255.093 238.550 C 255.592 238.028, 256 236.982, 256 236.228 C 256 234.519, 265.823 214.725, 270.720 206.564 C 283.444 185.362, 304.731 162.088, 325.750 146.398 C 329.738 143.421, 333 140.539, 333 139.993 C 333 139.388, 328.012 138.994, 320.250 138.985 C 290.304 138.951, 271.116 128.632, 260.199 106.693 C 256.253 98.762, 255.433 96.783, 251.213 85 C 246.046 70.576, 243.755 65, 242.994 65 C 242.538 65, 241.380 67.138, 240.420 69.750 M 402.667 130.667 C 401.422 131.912, 401.994 136.719, 404.565 146.622 C 413.934 182.705, 415.514 196.109, 412.905 217.381 C 410.999 232.922, 405.913 246.655, 397.122 259.998 C 391.125 269.102, 380.427 279.518, 365.569 290.721 C 316.453 327.755, 294.153 348.704, 275.765 375.086 C 272.156 380.264, 267.743 387.200, 265.958 390.500 C 264.173 393.800, 262.381 396.950, 261.977 397.500 C 259.370 401.045, 249 428.009, 249 431.242 C 249 434.725, 247.297 432.894, 245.753 427.750 C 242.933 418.356, 241.007 413.708, 234.377 400.290 C 215.718 362.530, 187.669 331.729, 144 301.046 C 108.618 276.185, 95.821 261.350, 87.047 235.028 C 83.261 223.670, 82.069 215.337, 82.039 200 C 82.001 180.481, 84.185 167.501, 90.369 150.500 C 93.732 141.254, 93.789 131, 90.476 131 C 89.766 131, 87.068 133.355, 84.480 136.233 C 62.509 160.670, 50 201.158, 50 247.834 C 50 292.253, 60.724 330.506, 80.602 356.992 C 94.873 376.007, 120.565 398.328, 143.500 411.638 C 169.200 426.552, 198.057 438.087, 221.065 442.642 C 233.051 445.015, 260.677 445.018, 271.500 442.647 C 292.994 437.939, 312.709 431.697, 331 423.811 C 394.614 396.381, 430.551 352.168, 443.016 286 C 445.704 271.730, 445.936 222.323, 443.377 209 C 441.691 200.226, 438.310 187.815, 435.497 180.074 C 431.008 167.722, 418.557 146.292, 411.052 138 C 409.310 136.075, 407.183 133.488, 406.327 132.250 C 404.714 129.919, 403.807 129.526, 402.667 130.667" stroke="none" fill="#ffffff22" fill-rule="evenodd"></path></g></svg>