<?xml version="1.0" standalone="no"?><svg id="svgContent" version="1.1" width="500" height="498" style="position: relative; width: 500px; height: 498px; margin:auto; user-select: none; cursor: default;" xmlns="http://www.w3.org/2000/svg" xmlns:xlink="http://www.w3.org/1999/xlink" viewBox="0 0 500 498"><g id="svgPath"><path d="M 171.290 71.965 C 169.525 73.041, 167.154 75.738, 166.021 77.958 C 163.990 81.940, 163.966 82.994, 164.231 155.326 L 164.500 228.657 167.229 232.234 C 168.729 234.201, 171.654 236.866, 173.729 238.155 C 177.428 240.455, 177.989 240.500, 203 240.500 L 228.500 240.500 233.500 237.890 C 237.021 236.053, 239.211 234.013, 240.906 230.994 C 244.356 224.846, 244.986 210.075, 244.720 141.500 L 244.500 84.500 241.772 78.946 C 237.405 70.053, 237.175 69.999, 203.216 70.004 C 176.474 70.007, 174.279 70.142, 171.290 71.965 M 264.621 73.250 C 258.022 79.026, 258.025 78.991, 258.012 154.307 C 257.998 233.442, 257.812 231.874, 267.892 237.784 L 272.500 240.486 297.500 240.448 C 322.322 240.410, 322.540 240.391, 328.187 237.789 C 332.718 235.701, 334.343 234.288, 336.187 230.834 L 338.500 226.500 338.500 154 C 338.500 73.652, 338.885 78.447, 331.959 72.619 L 328.847 70 298.590 70 L 268.333 70 264.621 73.250 M 86.500 92.935 C 81.893 94.057, 77.455 96.655, 75.800 99.199 C 71.762 105.407, 71.645 107.367, 71.770 167.039 C 71.885 221.834, 71.984 224.797, 73.852 229.155 C 75.818 233.740, 79.393 237.058, 84.432 238.974 C 85.969 239.559, 97.944 240.061, 112.330 240.145 C 134.629 240.275, 137.936 240.089, 141.017 238.526 C 145.871 236.063, 147.879 234.123, 150.356 229.500 C 152.479 225.539, 152.500 224.918, 152.500 166 L 152.500 106.500 150.273 102.334 C 147.844 97.792, 144.377 94.943, 139.101 93.153 C 135.319 91.870, 91.618 91.689, 86.500 92.935 M 359 94.323 C 355.915 95.910, 353.714 98.031, 352 101.069 L 349.500 105.500 349.192 162 C 349.023 193.075, 349.165 220.840, 349.508 223.700 C 350.294 230.253, 353.336 234.810, 359.039 237.978 C 363.439 240.421, 363.829 240.456, 387.500 240.461 C 413.092 240.467, 416.526 239.972, 422.661 235.393 C 424.493 234.026, 426.594 231.031, 427.661 228.267 C 429.371 223.834, 429.500 219.401, 429.500 165 L 429.500 106.500 427.230 102.251 C 425.982 99.914, 423.091 96.764, 420.806 95.251 L 416.651 92.500 390.076 92.253 C 364.014 92.012, 363.413 92.052, 359 94.323 M 93 256.716 C 87.693 258.555, 78.600 265.939, 76.396 270.202 C 72.178 278.357, 72.022 280.536, 72.023 331 C 72.024 381.187, 72.277 384.839, 76.293 392.602 C 78.410 396.693, 84.303 401.782, 89.949 404.394 C 94.294 406.405, 96.038 406.500, 128.530 406.500 C 160.194 406.500, 162.871 406.363, 167.030 404.532 C 174.384 401.295, 178.815 397.122, 182.200 390.246 C 184.914 384.733, 185.444 382.313, 186.156 372.190 C 187.244 356.731, 188.477 350.569, 191.521 345.374 C 196.816 336.339, 205.083 333, 222.161 333 C 235.380 333, 243.510 330.675, 250.508 324.892 C 262.018 315.381, 263.724 310.561, 262.294 291.591 C 261.415 279.937, 260.941 277.662, 258.430 273.048 C 254.917 266.593, 248.231 260.500, 241.221 257.362 L 235.943 255 166.721 255.079 C 106.767 255.147, 96.898 255.367, 93 256.716 M 299.775 257.154 C 291.914 259.895, 285.082 266.240, 281.420 274.200 C 278.548 280.443, 278.517 280.712, 277.985 304 C 277.651 318.587, 277.007 328.448, 276.287 330 C 273.945 335.050, 267.335 342.517, 262.633 345.424 C 257.882 348.361, 257.559 348.413, 243.118 348.556 C 234.262 348.644, 226.860 349.213, 224.467 349.990 C 216.789 352.483, 210.010 358.231, 206.177 365.500 C 203.736 370.128, 203.501 371.689, 203.009 386.500 C 202.393 405.041, 201.648 407.309, 193.495 415.461 C 188.134 420.823, 181.064 424, 174.496 424 C 172.695 424, 170.195 424.831, 168.940 425.847 C 166.759 427.613, 166.652 428.367, 166.496 443.059 C 166.342 457.509, 166.458 458.549, 168.458 460.549 C 170.557 462.648, 171.293 462.684, 225.626 463.378 C 255.899 463.764, 292.692 463.766, 307.388 463.382 C 339.356 462.546, 336.964 463.783, 337.073 448.027 C 337.177 432.975, 338.095 428.095, 342.055 421.526 C 348.611 410.653, 356.942 408.005, 384.644 407.989 C 405.603 407.977, 409.975 407.177, 417.540 401.972 C 420.037 400.254, 423.749 396.335, 425.790 393.261 L 429.500 387.674 429.500 332.087 C 429.500 279.145, 429.408 276.315, 427.566 272.603 C 424.664 266.754, 418.730 261.261, 411.746 257.957 L 405.500 255.002 355.500 255.080 C 308.224 255.154, 305.188 255.267, 299.775 257.154" stroke="none" fill="#ffffff22" fill-rule="evenodd"></path></g></svg>