<?xml version="1.0" standalone="no"?><svg id="svgContent" version="1.1" width="500" height="498" style="position: relative; width: 500px; height: 498px; margin:auto; user-select: none; cursor: default;" xmlns="http://www.w3.org/2000/svg" xmlns:xlink="http://www.w3.org/1999/xlink" viewBox="0 0 500 498"><g id="svgPath"><path d="M 223 38.509 C 223 38.789, 225.412 42.727, 228.359 47.259 C 233.770 55.579, 238.597 64.571, 241.103 71 C 243.246 76.498, 242.921 91.571, 240.543 97.018 C 237.323 104.391, 230.126 112.735, 220.027 120.804 C 214.787 124.990, 210.275 128.662, 210 128.965 C 209.725 129.267, 205 133.102, 199.500 137.488 C 183.141 150.532, 164.437 169.875, 157.571 180.850 C 148.439 195.445, 145.913 202.448, 143.993 218.500 C 142.768 228.735, 146.486 248.006, 151.662 258.250 C 152.426 259.762, 152.685 261, 152.238 261 C 151.790 261, 147.840 258.133, 143.460 254.628 C 135.628 248.361, 127.862 239.565, 124.660 233.331 C 114.684 213.909, 115.365 188.924, 126.653 160.233 C 128.658 155.136, 130.009 150.675, 129.654 150.320 C 128.288 148.954, 124.066 152.144, 112.226 163.487 C 98.046 177.073, 88.743 188.953, 82.860 200.990 C 73.903 219.317, 70.993 231.777, 71.016 251.708 C 71.051 282.830, 81.184 308.253, 108.429 345.571 L 112.861 351.643 107.241 349.745 C 90.433 344.071, 69.076 331.102, 52.594 316.563 C 50.996 315.153, 49.259 314, 48.733 314 C 46.404 314, 52.591 334.695, 59.794 351 C 75.115 385.679, 97.643 412.472, 128.265 432.432 C 132.963 435.495, 137.118 438, 137.499 438 C 137.880 438, 139.386 438.824, 140.846 439.830 C 142.306 440.837, 148.430 443.799, 154.455 446.412 C 178 456.622, 202.258 462.165, 231 463.905 C 273.502 466.478, 312.029 458.534, 346 440.194 C 357.709 433.872, 359.395 432.848, 369 426.222 C 399.113 405.449, 423.740 376.988, 439.713 344.500 C 447.687 328.283, 449.486 323.773, 454.279 308 C 459.839 289.700, 460.975 284, 459.063 284 C 458.547 284, 452.134 288.181, 444.813 293.290 C 416.585 312.989, 399.084 322.043, 382.680 325.431 C 374.694 327.081, 363.447 327.533, 362.646 326.237 C 362.387 325.817, 366.523 321.790, 371.837 317.287 C 383.543 307.371, 401.643 289.048, 409.167 279.500 C 425.394 258.907, 431.834 244.633, 432.732 227.266 C 433.191 218.385, 432.953 216.070, 430.937 209.766 C 428.322 201.587, 423.229 192.311, 418.552 187.208 L 415.417 183.787 412.090 190.144 C 400.969 211.393, 387.520 223.591, 365.362 232.527 C 352.183 237.841, 328.870 242.861, 322 241.863 L 319.500 241.500 319.840 213.500 C 320.026 198.100, 319.703 179.875, 319.121 173 C 316.336 140.093, 304.717 106.637, 287.691 82.500 C 281.734 74.054, 268.130 60.647, 259.097 54.320 C 246.385 45.415, 223 35.172, 223 38.509 M 245.487 270.931 C 227.972 276.110, 204.893 292.387, 199.535 303.339 C 197.621 307.251, 197.080 309.527, 197.566 311.617 C 198.683 316.413, 204.624 326.170, 209.977 332 C 223.433 346.653, 224.345 360.411, 212.678 372.747 C 206.508 379.271, 204.432 379.514, 203.470 373.824 C 202.495 368.049, 197.616 360.520, 192.624 357.086 C 187.434 353.514, 179.197 351, 172.689 351 L 167.741 351 173.361 356.666 C 185.655 369.057, 185.944 377.831, 174.555 392.847 C 165.862 404.308, 165 406.032, 165 411.951 C 165.001 419.030, 168.543 425.989, 176.034 433.627 C 183.725 441.468, 196.796 447.549, 218 453.149 C 225.487 455.127, 228.885 455.390, 246.500 455.356 C 264.662 455.321, 267.443 455.078, 276.767 452.718 C 304.246 445.760, 318.604 437.842, 322.570 427.456 C 324.681 421.928, 324.134 413.047, 321.340 407.500 C 320.232 405.300, 317.424 399.773, 315.100 395.218 C 307.898 381.103, 305.881 370.131, 308.527 359.464 C 310.610 351.072, 313.571 345.753, 320.054 338.758 C 324.892 333.539, 324.909 333.498, 322.314 333.169 C 316.266 332.404, 300.210 338.327, 292.073 344.325 C 286.588 348.367, 276 358.856, 276 360.246 C 276 360.661, 275.582 361, 275.072 361 C 274.562 361, 273.838 358.413, 273.465 355.250 C 271.060 334.884, 267.478 327.387, 254.427 315.407 C 245.335 307.061, 242 302.375, 242 297.945 C 242 294.554, 246.603 285.434, 252.698 276.750 L 258.138 269 254.819 269.076 C 252.993 269.118, 248.794 269.953, 245.487 270.931" stroke="none" fill="#ffffff22" fill-rule="evenodd"></path></g></svg>