<?xml version="1.0" standalone="no"?><svg id="svgContent" version="1.1" width="500" height="498" style="position: relative; width: 500px; height: 498px; margin:auto; user-select: none; cursor: default;" xmlns="http://www.w3.org/2000/svg" xmlns:xlink="http://www.w3.org/1999/xlink" viewBox="0 0 500 498"><g id="svgPath"><path d="M 308.500 39.577 C 303.550 41.476, 298.600 43.440, 297.500 43.942 C 296.400 44.443, 288.525 47.869, 280 51.556 C 260.213 60.113, 233.597 73.079, 219.500 81.028 C 200.629 91.668, 199.564 92.284, 197 94.036 C 195.625 94.976, 189.100 99.240, 182.500 103.512 C 143.303 128.882, 114.301 155.292, 91.915 186 C 83.549 197.477, 70.425 222.990, 66.196 236 C 57.768 261.926, 57.682 290.956, 65.963 315 C 71.725 331.732, 79.131 343.413, 92.784 357.302 C 104.572 369.293, 119.871 378.606, 143.224 388.005 C 157.336 393.685, 164.438 397.857, 171.099 404.379 C 179.394 412.502, 182.427 420.220, 184.092 437.446 C 185.217 449.074, 186.372 452.379, 190.759 456.527 C 195.163 460.691, 199.486 462.080, 217.500 465.115 C 237.038 468.407, 243.162 468.695, 245.429 466.429 C 247.673 464.184, 247.478 452.836, 244.876 434.329 C 243.703 425.985, 243.042 417.968, 243.407 416.513 C 244.345 412.778, 247.939 411.619, 266.500 409.071 C 332.101 400.065, 368.982 388.600, 400.500 367.416 C 424.085 351.564, 437.503 334.314, 442.984 312.798 C 445.023 304.794, 445.164 302.391, 444.741 282.798 C 444.489 271.084, 443.711 258.800, 443.013 255.500 C 440.145 241.932, 433.360 220.172, 424.326 195.563 C 416.857 175.215, 395.370 133.588, 380.935 111.500 C 378.778 108.200, 376.697 104.825, 376.311 104 C 374.913 101.011, 348.513 62.219, 340.243 51 C 335.580 44.675, 330.806 38.723, 329.633 37.772 C 326.202 34.993, 318.803 35.625, 308.500 39.577 M 283.688 103.250 C 274.426 114.676, 258.464 140.027, 250.022 156.717 C 246.252 164.173, 241.368 170, 238.891 170 C 237.058 170, 230.512 166.890, 228.514 165.070 C 224.716 161.610, 210.498 154.037, 203.075 151.519 C 197.082 149.486, 193.802 149.014, 186.075 149.070 C 180.809 149.109, 175.600 149.527, 174.500 150 C 173.400 150.473, 173.068 150.891, 173.763 150.930 C 176.004 151.054, 192.281 159.425, 200 164.422 C 204.125 167.093, 209.987 171.803, 213.026 174.889 C 226.225 188.290, 227.497 202.229, 217.615 225.182 C 216.744 227.207, 215.583 229.139, 215.037 229.477 C 214.491 229.815, 210.772 227.891, 206.772 225.202 C 181.895 208.478, 162.252 204.791, 132.204 211.208 C 129.292 211.830, 126.705 212.668, 126.456 213.071 C 126.207 213.474, 128.815 214.101, 132.252 214.465 C 153.026 216.661, 176.341 227.125, 191.193 240.918 C 204.183 252.982, 206.764 258.599, 204.043 268.884 C 203.192 272.102, 201.654 279.556, 197.985 298.250 C 197.361 301.432, 196.320 304, 195.655 304 C 194.995 304, 192.215 302.538, 189.477 300.750 C 163.850 284.016, 131.323 278.067, 106.500 285.574 L 100.500 287.389 109.500 288.575 C 125.312 290.658, 138.453 294.835, 151.754 302.007 C 178.141 316.234, 190.777 329.824, 194.582 348.070 C 195.441 352.190, 195.932 359.729, 195.826 367.187 C 195.679 377.592, 196.013 380.662, 197.981 387 C 200.049 393.657, 208.941 413.394, 209.583 412.750 C 209.901 412.430, 211.698 392.529, 213.037 374.500 C 213.608 366.800, 214.516 358.851, 215.053 356.836 C 217.759 346.694, 252.669 324.611, 279 316.386 C 300.810 309.573, 325.429 307.139, 350.098 309.355 C 359.605 310.209, 368.307 311.519, 370.470 312.423 C 376.181 314.809, 376.752 314.328, 372.159 311 C 369.881 309.350, 367.745 308, 367.413 308 C 367.081 308, 365.614 307.195, 364.154 306.211 C 357.552 301.762, 345.768 299.491, 322 298.087 C 290.587 296.231, 258.170 301.387, 232.305 312.353 C 222.585 316.473, 221.387 315.057, 222.518 300.776 C 223.922 283.028, 228.349 270.818, 236.560 262.039 C 241.734 256.508, 247.382 253.265, 259 249.155 C 263.675 247.501, 269.975 245.176, 273 243.989 C 280.638 240.990, 292.029 237.536, 301.500 235.348 C 313.040 232.682, 348.410 232.695, 362 235.370 C 367.225 236.399, 372.738 237.613, 374.250 238.068 C 378.907 239.470, 377.360 238.351, 368.250 233.727 C 358.166 228.608, 348.669 224.973, 338 222.148 C 311.030 215.007, 276.588 218.749, 247.557 231.974 C 241.124 234.905, 239.928 234.694, 240.623 230.750 C 244.354 209.580, 252.645 197.261, 269.272 188.178 C 291.821 175.861, 316.262 168.419, 341.849 166.081 C 347.541 165.561, 352.387 164.946, 352.618 164.715 C 352.849 164.484, 349.092 163.216, 344.269 161.897 C 336.714 159.832, 333.285 159.500, 319.500 159.503 C 307.308 159.505, 301.715 159.946, 296 161.356 C 284.270 164.251, 272.993 167.877, 267.134 170.639 C 263.961 172.135, 261.401 172.801, 260.870 172.270 C 260.071 171.471, 276.842 125.183, 282.842 111.623 C 284.029 108.940, 285.003 106.240, 285.006 105.623 C 285.010 105.005, 285.658 103.263, 286.447 101.750 C 288.456 97.899, 287.688 98.316, 283.688 103.250 M 249 174.059 C 249 174.641, 249.450 174.840, 250 174.500 C 250.550 174.160, 251 173.684, 251 173.441 C 251 173.198, 250.550 173, 250 173 C 249.450 173, 249 173.477, 249 174.059" stroke="none" fill="#ffffff22" fill-rule="evenodd"></path></g></svg>