<?xml version="1.0" standalone="no"?><svg id="svgContent" version="1.1" width="500" height="498" style="position: relative; width: 500px; height: 498px; margin:auto; user-select: none; cursor: default;" xmlns="http://www.w3.org/2000/svg" xmlns:xlink="http://www.w3.org/1999/xlink" viewBox="0 0 500 498"><g id="svgPath"><path d="M 273 52.507 C 265.651 63.177, 265.117 63.934, 242.722 95.500 C 233.747 108.150, 219.931 127.725, 212.020 139 C 197.994 158.990, 188.499 172.457, 185.583 176.500 C 184.789 177.600, 177.450 187.950, 169.275 199.500 C 161.099 211.050, 152.405 223.295, 149.955 226.711 C 147.505 230.127, 142.800 236.789, 139.500 241.515 C 136.200 246.242, 131.700 252.539, 129.500 255.509 C 127.300 258.479, 122.880 264.642, 119.678 269.205 C 116.475 273.767, 110.041 282.863, 105.380 289.417 C 92.833 307.059, 94.098 308.446, 116 301.062 C 131.140 295.958, 147.610 290.873, 163 286.551 C 176.252 282.829, 182.142 281.039, 199 275.609 C 209.227 272.316, 213.017 271.151, 227.500 266.850 C 231.350 265.706, 236.300 264.195, 238.500 263.491 C 240.700 262.786, 245.875 261.205, 250 259.976 C 254.125 258.748, 260.087 256.930, 263.250 255.937 C 266.413 254.944, 269 254.457, 269 254.855 C 269 255.580, 266.942 263.529, 264.562 272 C 261.359 283.397, 250.093 324.259, 239.472 363 C 233.064 386.375, 225.572 413.600, 222.824 423.500 C 220.076 433.400, 216.762 445.447, 215.460 450.271 C 214.157 455.096, 212.842 459.447, 212.537 459.941 C 211.850 461.051, 214.872 464.209, 216.198 463.767 C 216.729 463.590, 218.589 460.900, 220.332 457.788 C 222.074 454.676, 225.575 448.614, 228.111 444.315 C 230.647 440.017, 234.971 432.675, 237.720 428 C 240.468 423.325, 245.780 414.325, 249.523 408 C 260.069 390.179, 278.344 359.197, 289.041 341 C 294.376 331.925, 304.046 315.500, 310.530 304.500 C 317.014 293.500, 325.098 279.775, 328.494 274 C 331.891 268.225, 337.730 258.325, 341.470 252 C 345.210 245.675, 349.131 238.985, 350.184 237.133 C 353.711 230.926, 365.228 211.540, 367.627 207.771 C 368.932 205.721, 370 203.866, 370 203.650 C 370 203.434, 375.625 193.871, 382.500 182.400 C 389.375 170.930, 395 160.747, 395 159.772 C 395 157.463, 392.893 157.522, 384.944 160.049 C 381.400 161.177, 376.250 162.753, 373.500 163.553 C 370.750 164.353, 363.100 166.604, 356.500 168.556 C 349.900 170.507, 341.350 173.031, 337.500 174.164 C 333.650 175.298, 328.025 177, 325 177.947 C 321.975 178.894, 317.025 180.398, 314 181.290 C 310.975 182.182, 305.350 183.852, 301.500 185 C 297.650 186.148, 292.025 187.800, 289 188.670 C 285.975 189.540, 281.025 191.034, 278 191.989 C 274.975 192.945, 266.650 195.419, 259.500 197.487 C 252.350 199.555, 243.834 202.088, 240.576 203.117 C 237.318 204.145, 234.509 204.842, 234.333 204.667 C 234.158 204.491, 234.876 201.682, 235.930 198.424 C 238.423 190.720, 249.381 156.184, 253.199 144 C 254.836 138.775, 256.988 132.025, 257.980 129 C 260.213 122.195, 263.339 112.314, 270 91 C 272.836 81.925, 277.146 68.370, 279.578 60.877 C 284.704 45.083, 284.960 42.985, 281.750 43.035 C 280.051 43.062, 277.908 45.382, 273 52.507" stroke="none" fill="#ffffff22" fill-rule="evenodd"></path></g></svg>