<?xml version="1.0" standalone="no"?><svg id="svgContent" version="1.1" width="500" height="498" style="position: relative; width: 500px; height: 498px; margin:auto; user-select: none; cursor: default;" xmlns="http://www.w3.org/2000/svg" xmlns:xlink="http://www.w3.org/1999/xlink" viewBox="0 0 500 498"><g id="svgPath"><path d="M 131 92.620 C 106.906 94.295, 105.758 94.492, 102.097 97.572 C 99.285 99.938, 97.843 102.144, 90.706 115 C 89.027 118.025, 79.103 135.125, 68.654 153 C 58.205 170.875, 47.933 188.470, 45.828 192.100 C 40.983 200.454, 40.754 205.430, 44.831 213.734 C 59.543 243.701, 70.374 264.148, 72.222 265.443 C 74.097 266.757, 78.559 267, 100.754 267 C 121.651 267, 127.167 266.728, 127.570 265.677 C 128.244 263.923, 119.881 247.818, 112.151 235.980 C 108.746 230.766, 103.944 222.483, 101.480 217.573 C 97.316 209.276, 97 208.093, 97 200.825 C 97 191.060, 99.482 185.398, 111.751 167.186 C 116.450 160.209, 121.531 152.250, 123.041 149.500 C 124.551 146.750, 127.243 143.493, 129.023 142.262 C 132.008 140.198, 133.311 140.033, 145.850 140.134 C 155.741 140.214, 160.030 140.629, 161.604 141.660 C 162.794 142.440, 165.732 143.050, 168.133 143.016 C 183.957 142.796, 187.617 142.412, 190.123 140.714 C 192.100 139.374, 193.760 139.098, 196.857 139.593 C 200.055 140.105, 201.097 139.910, 201.556 138.715 C 201.894 137.835, 199.495 132.336, 195.941 125.840 C 186.203 108.041, 184.513 104.911, 181.092 98.335 C 179.329 94.944, 177.200 91.907, 176.361 91.585 C 173.931 90.653, 152.168 91.149, 131 92.620 M 329.724 92.752 C 328.852 93.716, 326.136 98.328, 323.689 103.002 C 321.242 107.676, 316.011 117.299, 312.066 124.388 C 307.946 131.788, 305.140 137.923, 305.476 138.797 C 305.987 140.130, 309.532 140.241, 334.067 139.692 C 350.574 139.323, 364.143 139.458, 367.111 140.021 C 380.935 142.643, 387.034 149.198, 400.956 176.396 C 404.645 183.603, 408.859 191.525, 410.320 194 C 411.781 196.475, 412.979 199.850, 412.983 201.500 C 412.987 203.374, 410.518 208.817, 406.406 216 C 402.785 222.325, 397.781 231.325, 395.286 236 C 390.647 244.689, 385.089 254.922, 381.827 260.780 C 378.229 267.241, 377.272 267, 406.500 267 C 432.012 267, 433.078 266.922, 435.081 264.919 C 436.226 263.774, 441.009 254.886, 445.710 245.169 C 450.410 235.451, 456.674 222.626, 459.628 216.668 C 467.536 200.723, 467.375 199.370, 455.341 180.803 C 452.953 177.120, 451 173.909, 451 173.668 C 451 173.427, 448.005 168.340, 444.345 162.365 C 440.685 156.389, 436.912 150.150, 435.961 148.500 C 434.536 146.029, 425.476 130.729, 408.651 102.379 C 407.306 100.113, 404.535 96.984, 402.493 95.427 C 398.906 92.691, 398.256 92.572, 383.141 91.876 C 374.538 91.480, 359.357 91.121, 349.405 91.078 C 333.372 91.009, 331.129 91.200, 329.724 92.752 M 145 184.266 C 145 184.962, 146.800 188.612, 149 192.377 C 151.200 196.142, 153 199.406, 153 199.631 C 153 199.856, 154.149 201.860, 155.554 204.085 C 156.958 206.310, 158.928 209.564, 159.931 211.315 C 160.935 213.067, 163.385 217.313, 165.378 220.750 C 167.370 224.188, 170.630 229.813, 172.621 233.250 C 174.613 236.688, 177.317 241.300, 178.631 243.500 C 179.944 245.700, 182.381 249.975, 184.046 253 C 190.493 264.715, 193.637 270.037, 194.795 271.195 C 195.458 271.858, 196 272.751, 196 273.180 C 196 273.608, 207.925 294.474, 222.500 319.547 C 237.075 344.620, 249 365.554, 249 366.067 C 249 367.844, 252.868 366.992, 253.474 365.081 C 253.809 364.026, 256.539 359.088, 259.542 354.108 C 262.544 349.128, 265 344.740, 265 344.356 C 265 343.972, 265.612 342.947, 266.360 342.079 C 267.108 341.210, 269.056 338.025, 270.689 335 C 272.322 331.975, 274.860 327.596, 276.329 325.270 C 277.798 322.943, 279 320.815, 279 320.539 C 279 320.264, 280.502 317.668, 282.338 314.769 C 284.174 311.871, 287.385 306.350, 289.472 302.500 C 291.560 298.650, 294.108 294.306, 295.134 292.846 C 296.160 291.386, 297 289.960, 297 289.678 C 297 289.396, 299.090 285.641, 301.645 281.333 C 304.200 277.025, 307.421 271.475, 308.803 269 C 310.185 266.525, 320.174 249.200, 331.001 230.500 C 354.355 190.163, 357 185.439, 357 184.054 C 357 183.322, 324.624 183, 251 183 C 166.158 183, 145 183.253, 145 184.266 M 170.373 365.250 C 166.658 371.438, 161.609 379.650, 159.153 383.500 C 152.336 394.189, 151 396.836, 151 399.659 C 151 402.400, 155.972 411.902, 158.506 414.005 C 159.328 414.687, 160 415.583, 160 415.995 C 160 416.408, 164.423 423.441, 169.829 431.623 C 175.234 439.805, 181.264 449.025, 183.228 452.112 C 185.823 456.191, 188.023 458.317, 191.280 459.893 C 195.741 462.053, 196.017 462.061, 253.630 461.781 C 320.919 461.454, 315.002 462.471, 323.608 449.753 C 326.470 445.523, 328.967 441.704, 329.156 441.265 C 329.345 440.826, 334.265 433.275, 340.090 424.484 C 352.741 405.388, 353 404.922, 353 401.252 C 353 397.700, 328.040 354.500, 325.987 354.500 C 323.769 354.500, 316.143 366.315, 305.979 385.500 C 303.064 391, 300.190 396.400, 299.590 397.500 C 298.173 400.100, 292.135 407.996, 289.807 410.294 C 283.447 416.571, 269.262 419.598, 253.500 418.040 C 248 417.496, 238.640 417.040, 232.700 417.026 C 224.651 417.007, 221.086 416.579, 218.700 415.346 C 214.817 413.340, 214.239 412.620, 208.391 402.500 C 193.141 376.112, 179.458 354, 178.377 354 C 177.690 354, 174.088 359.063, 170.373 365.250" stroke="none" fill="#ffffff22" fill-rule="evenodd"></path></g></svg>