<?xml version="1.0" standalone="no"?><svg id="svgContent" version="1.1" width="500" height="498" style="position: relative; width: 500px; height: 498px; margin:auto; user-select: none; cursor: default;" xmlns="http://www.w3.org/2000/svg" xmlns:xlink="http://www.w3.org/1999/xlink" viewBox="0 0 500 498"><g id="svgPath"><path d="M 236 103.052 C 172.860 107.205, 120.546 134.736, 78.382 186 C 69.270 197.079, 63.466 205.417, 48.799 228.500 C 29.429 258.986, 26.008 265.464, 25.236 273.117 C 24.567 279.757, 28.789 287.922, 41.939 305.418 C 53.224 320.435, 54.456 322.033, 65.510 336 C 94.016 372.017, 128.935 398.595, 167.225 413.415 C 196.645 424.803, 221.553 428.685, 258.927 427.708 C 282.297 427.097, 291.348 425.840, 307.500 420.963 C 311.350 419.800, 316.075 418.383, 318 417.813 C 323.822 416.088, 340.028 409.448, 349.026 405.099 C 373.913 393.071, 391.813 380.121, 414.125 358 C 434.476 337.824, 448.056 320.401, 467.128 290 C 472.261 281.818, 472.461 281.235, 472.480 274.404 C 472.491 270.501, 471.999 266.676, 471.387 265.904 C 470.775 265.132, 468.098 260.225, 465.438 255 C 440.504 206.021, 404.575 164.191, 364.371 137.334 C 324.762 110.875, 283.714 99.913, 236 103.052 M 311 162.784 C 311 163.216, 312.238 164.303, 313.750 165.200 C 318.221 167.851, 332.353 182.234, 337.253 189.119 C 349.290 206.033, 356.299 225.403, 358.015 246.500 C 360.246 273.929, 354.302 297.090, 339.173 319.918 C 334.134 327.521, 320.005 342.107, 312.471 347.484 C 293.247 361.202, 273.592 367.236, 248 367.277 C 224.914 367.314, 210.494 363.375, 191 351.708 C 171.694 340.152, 153.417 318.483, 145.107 297.298 C 139.498 282.997, 138.527 276.726, 138.553 255 C 138.585 229.616, 139.666 224.697, 149.763 204 C 155.340 192.569, 160.499 185.594, 172.109 173.788 C 177.944 167.855, 182.322 163, 181.839 163 C 181.355 163, 176.807 165.085, 171.730 167.633 C 137.420 184.855, 104.911 216.705, 82.043 255.500 C 72.686 271.373, 72.681 272.144, 81.836 285.456 C 100.641 312.797, 121.520 333.670, 148.111 351.712 C 192.369 381.740, 237.070 391.006, 289 380.916 C 294.917 379.767, 296.977 379.195, 307 375.921 C 343.591 363.967, 375.478 339.997, 404.954 302.287 C 423.556 278.487, 425.831 274.615, 424.246 269.449 C 423.380 266.629, 419.945 260.168, 414.500 251.120 C 412.778 248.259, 408.926 242.880, 400.413 231.450 C 379.802 203.774, 355.242 182.463, 326.500 167.314 C 317.491 162.565, 311 160.668, 311 162.784 M 238.720 203.613 C 238.383 203.951, 239.848 206.538, 241.976 209.363 C 246.629 215.540, 249.775 223.182, 250.584 230.271 C 251.265 236.231, 247.975 247.911, 243.715 254.660 C 240.853 259.193, 234.412 265.219, 229.974 267.514 C 224.423 270.384, 214.961 271.848, 208.504 270.835 C 199.828 269.475, 199.549 269.697, 202.635 275.500 C 213.656 296.225, 232.164 306.627, 252.502 303.526 C 261.272 302.188, 273.362 296.551, 279.403 290.983 C 285.274 285.571, 290.445 277.712, 293.533 269.507 C 296.876 260.628, 297.014 246.431, 293.852 236.944 C 288.296 220.281, 273.799 206.918, 258.114 204.002 C 252.175 202.897, 239.686 202.647, 238.720 203.613" stroke="none" fill="#ffffff22" fill-rule="evenodd"></path></g></svg>