<?xml version="1.0" standalone="no"?><svg id="svgContent" version="1.1" width="500" height="498" style="position: relative; width: 500px; height: 498px; margin:auto; user-select: none; cursor: default;" xmlns="http://www.w3.org/2000/svg" xmlns:xlink="http://www.w3.org/1999/xlink" viewBox="0 0 500 498"><g id="svgPath"><path d="M 367.500 86 C 366.400 86.473, 363.821 86.891, 361.769 86.930 C 358.111 86.999, 353.089 87.670, 334 90.643 C 285.284 98.228, 240.149 110.097, 199.500 126.011 C 187.545 130.692, 168.447 140.025, 157.344 146.615 C 151.930 149.827, 146.521 152.984, 145.325 153.630 C 138.744 157.182, 116.321 174.955, 107.500 183.612 C 69.579 220.827, 53.767 275.251, 66.131 326 C 69.757 340.884, 78.523 359.577, 87.453 371.468 C 113.393 406.009, 148.295 427.420, 200 440.511 C 249.878 453.139, 294.410 451.085, 334.293 434.314 C 361.485 422.881, 377.580 406.003, 384.656 381.500 C 385.973 376.941, 386.374 371.899, 386.327 360.500 C 386.275 347.617, 385.894 344.089, 383.631 335.500 C 379.315 319.123, 371.614 302.981, 362.160 290.500 C 358.117 285.161, 342.648 266.660, 332.950 255.562 C 316.465 236.699, 304.167 216.589, 298.360 199 C 296.043 191.982, 295.759 171.344, 297.906 166 C 304.264 150.174, 308.999 143.177, 321.646 130.919 C 336.684 116.345, 347.057 110.401, 380.966 96.928 C 395.548 91.134, 404 87.266, 404 86.388 C 404 85.255, 400.829 85.013, 386.750 85.070 C 377.262 85.109, 368.600 85.527, 367.500 86 M 152.458 365.813 C 145.747 368.972, 142.737 375.643, 144.970 382.408 C 147.398 389.767, 162.519 402.030, 179.500 410.413 C 193.554 417.351, 199.959 419.444, 215.169 422.071 C 225.832 423.912, 228.622 424.055, 235.794 423.130 C 245.424 421.888, 249.140 420.027, 251.385 415.318 C 255.043 407.649, 252.659 401.382, 242.884 392.969 C 221.687 374.725, 197.619 365.344, 169.500 364.364 C 158.200 363.970, 155.971 364.160, 152.458 365.813" stroke="none" fill="#ffffff22" fill-rule="evenodd"></path></g></svg>